<?xml version="1.0" encoding="utf-8"?>
<!-- Generator: Adobe Illustrator 16.0.0, SVG Export Plug-In . SVG Version: 6.00 Build 0)  -->
<!DOCTYPE svg PUBLIC "-//W3C//DTD SVG 1.1//EN" "http://www.w3.org/Graphics/SVG/1.1/DTD/svg11.dtd">
<svg version="1.1" id="Layer_2" xmlns="http://www.w3.org/2000/svg" xmlns:xlink="http://www.w3.org/1999/xlink" x="0px" y="0px"
	 width="612px" height="792px" viewBox="0 0 612 792" enable-background="new 0 0 612 792" xml:space="preserve">
<path d="M476.491,197.632c1.147-2.294,5.354-15.484-4.97-23.13c-10.322-7.646-24.226-2.641-27.717,2.294
	c-1.614,2.583-76.877,106.568-100.217,138.807c-1.715-0.841-3.462-1.628-5.236-2.36c1.528-62.944,2.76-113.479,2.76-113.479
	s-0.502-1.72,1.147-2.365c1.648-0.646,2.58-3.441,2.652-4.731c0.071-1.29-1.362-3.584-2.008-4.516
	c-0.645-0.932-0.788-2.437-0.788-3.871c0-1.434,0.144-7.957,0.144-7.957s2.637,9.772,2.938,10.394c0.304,0.622,0,0,0.638,1.219
	c0.637,1.218,1.29,3.656,1.648,6.165c0.358,2.509,0.717,2.151,1.147,3.871c0.43,1.721-0.216,4.875-0.144,7.67
	c0.071,2.795,1.362,9.462,1.362,10.25c0,0.789-1.649,1.864-2.725,3.513c-1.075,1.649,2.223,1.147,4.015,0.932
	c1.792-0.215,3.799-2.222,3.942-3.513s0.86-1.72,1.434-1.936c0.573-0.215,2.796-3.011,4.444-6.452
	c1.649-3.44,0.215-6.81-0.143-8.387c-3.083-9.104-1.434-11.828-2.939-20.215s-6.165-11.971-7.957-13.763
	c-1.362-1.219-4.015-4.803-4.731-8.101c-0.717-3.297-1.792-3.799-3.011-4.014c-1.648,0.144-1.999-1.792-3.146-2.437
	c-1.146-0.646-1.441-2.007-4.376-0.646c-2.936,1.362-7.595,3.728-7.38,5.305s0.55,2.533,0.55,2.533
	c1.052,2.007,3.441,3.728,3.536,4.492c0.096,0.764,0.479,2.103,0,2.103c-0.478,0-1.529,2.485-0.956,3.536
	c0.573,1.052,1.816,1.625,1.721,2.581c-0.095,0.956-0.573,15.771-0.573,15.771s-2.485,1.529-2.485,4.588s2.104,3.823,2.294,4.492
	c0.191,0.669,0.287,7.359,0.287,7.359l-1.997,106.533c-8.125-2.409-16.728-3.708-25.634-3.708c-9.858,0-19.344,1.589-28.22,4.517
	l-1.218-107.341c0,0,0.096-6.69,0.286-7.359c0.191-0.669,2.294-1.434,2.294-4.492s-2.484-4.588-2.484-4.588
	s-0.479-14.815-0.574-15.771c-0.096-0.956,1.147-1.529,1.721-2.581c0.573-1.051-0.478-3.536-0.956-3.536
	c-0.478,0-0.095-1.338,0-2.103c0.096-0.765,2.485-2.485,3.537-4.492c0,0,0.334-0.956,0.549-2.533s-4.444-3.942-7.38-5.305
	c-2.935-1.362-3.229,0-4.376,0.646c-1.147,0.645-1.577,1.362-2.796,3.656s-4.516,3.154-6.523,4.086
	c-2.007,0.932-4.229,4.516-5.305,6.81s-2.15,10.394-2.222,13.405c-0.072,3.011-1.506,6.452-1.792,7.885
	c-0.287,1.434-0.144,7.67,0.573,8.459s3.871,6.165,5.734,9.247c1.864,3.083,3.011,3.943,4.659,4.015
	c1.649,0.071,2.939-2.581,2.295-3.083c-0.646-0.502-1.721-3.226-2.079-4.588s0.645-4.588,0.86-6.165
	c0.215-1.577,0.358-6.452,0.43-8.531s2.939-10.394,2.939-10.394s0.143,6.523,0.143,7.957c0,1.434-0.143,2.939-0.788,3.871
	c-0.646,0.932-2.079,3.226-2.007,4.516c0.071,1.291,1.003,4.086,2.652,4.731c1.648,0.645,1.146,2.365,1.146,2.365
	s0.867,51.082,1.938,114.608c-0.878,0.396-1.746,0.809-2.608,1.231c-23.34-32.239-98.602-136.224-100.217-138.807
	c-3.491-4.935-17.395-9.94-27.717-2.294c-10.322,7.646-6.117,20.836-4.971,23.13c1.147,2.294,18.353,23.321,23.131,28.291
	c3.994,4.154,65.409,81.753,85.468,107.122c-16.169,16.276-26.16,38.695-26.16,63.449c0,22.648,8.365,43.341,22.17,59.164
	l-4.151,5.391c0,0-68.723,89.654-78.758,108.005c-10.035,18.352-16.916,47.831-7.767,52.615c9.489,4.961,34.362-15.55,46.067-33.328
	c11.705-17.779,67.982-104.544,67.982-104.544l4.673-6.536c1.843,0.91,3.722,1.76,5.633,2.545
	c0.739,44.492,1.257,76.407,1.236,77.09c-0.072,2.294-0.933,2.725-1.936,2.725c-6.021,0.143-15.412,4.301-15.054,12.329
	s17.706,8.459,18.207,8.459c0.502,0,1.147,0.215,1.147,0.932s1.792,8.817,2.365,9.247c0.646-0.717,2.223-8.602,2.294-9.462
	c0.072-0.86,0-1.505,1.362-1.649c6.165-0.286,15.054-3.01,15.269-11.11s-11.469-9.534-12.401-9.749
	c-0.932-0.215-3.728,0.143-3.728-1.146l-0.849-74.838c8.312,2.531,17.132,3.898,26.272,3.898c7.726,0,15.225-0.975,22.381-2.806
	l-1.346,71.737c0,1.291-2.795,0.932-3.727,1.146c-0.933,0.216-12.617,1.649-12.402,9.75c0.216,8.1,9.104,10.824,15.27,11.111
	c1.361,0.143,1.29,0.788,1.361,1.648c0.072,0.859,1.649,8.745,2.294,9.462c0.574-0.431,2.366-8.53,2.366-9.247
	s0.645-0.932,1.146-0.932s17.85-0.431,18.208-8.459c0.358-8.029-9.032-12.187-15.054-12.33c-1.004,0-1.863-0.43-1.936-2.724
	c-0.021-0.667,0.691-30.954,1.712-73.581c3.272-1.169,6.458-2.521,9.544-4.047l4.672,6.536c0,0,56.277,86.765,67.982,104.544
	c11.706,17.778,36.58,38.289,46.068,33.328c9.149-4.784,2.269-34.264-7.767-52.615c-10.035-18.351-78.758-108.005-78.758-108.005
	l-4.152-5.391c13.806-15.823,22.171-36.516,22.171-59.164c0-24.754-9.992-47.173-26.16-63.449
	c20.059-25.368,81.474-102.967,85.468-107.122C458.141,220.953,475.345,199.926,476.491,197.632z M353.075,203.598
	c0.107-1.721-0.072-8.029,1.039-7.24c1.398,1.04,2.796,4.122,3.62,6.38s1.147,4.767,0.18,5.914s-2.903,2.795-3.728,2.222
	C353.361,210.301,352.968,205.318,353.075,203.598z M349.384,172.63c0.573-0.107,1.218,0.358,1.218,0.358
	c1.04,1.291,2.043,4.66,1.685,6.523s-0.286,3.656-0.788,4.229c-0.502,0.574-1.04-0.322-1.04-0.717c0-0.394,0.144,0.753,0-0.394
	c-0.143-1.147-1.146-4.05-0.932-5.807S348.81,172.738,349.384,172.63z M343.075,167.11c0.43-1.183,1.792,0.646,1.971,1.972
	c0.18,1.326-0.824,2.222-1.326,2.652C343.219,172.165,343.039,167.863,343.075,167.11z M256.444,187.648
	c0.072,2.294,0.072,9.175-0.358,9.605c-0.43,0.43-0.86-1.505-1.792-1.792c-0.932-0.287-3.154-2.652-3.298-4.731
	c-0.144-2.079,3.728-5.734,5.09-6.81C257.006,183.133,256.373,185.354,256.444,187.648z M260.315,166.215
	c-0.646,1.218,0.215,2.867-0.43,6.953c-0.646,4.086-2.079,1.721-2.077,0s-0.433-4.301-0.791-5.448
	c-0.358-1.146,0.789-3.082,1.649-3.942C260.817,162.487,260.961,164.996,260.315,166.215z M264.066,572.091
	c-1.979,0.058-3.604-0.622-3.63-1.52c-0.026-0.896,1.557-1.671,3.535-1.729s3.604,0.622,3.63,1.52
	C267.628,571.259,266.045,572.033,264.066,572.091z M286.477,567.361c2.006-0.055,3.654,0.734,3.682,1.764
	c0.028,1.029-1.574,1.907-3.579,1.963c-2.005,0.055-3.653-0.734-3.682-1.764S284.472,567.416,286.477,567.361z M317.069,569.08
	c-2.004-0.055-3.607-0.934-3.579-1.963c0.028-1.028,1.677-1.818,3.683-1.763c2.004,0.055,3.607,0.934,3.578,1.962
	C320.724,568.346,319.075,569.135,317.069,569.08z M339.677,566.836c1.979,0.058,3.562,0.832,3.536,1.729s-1.651,1.577-3.63,1.52
	c-1.979-0.059-3.562-0.832-3.536-1.729C336.073,567.459,337.698,566.777,339.677,566.836z M366.519,448.691L366.519,448.691
	c-0.46,0.55-0.927,1.093-1.4,1.63c-0.03,0.034-0.062,0.069-0.092,0.104c-0.449,0.508-0.904,1.011-1.367,1.507
	c-0.037,0.041-0.076,0.082-0.114,0.123c-0.469,0.502-0.943,0.998-1.425,1.488c-0.023,0.023-0.046,0.047-0.068,0.07
	c-3.071,3.12-6.393,5.992-9.93,8.587c-0.033,0.024-0.066,0.049-0.101,0.073c-0.556,0.406-1.117,0.807-1.684,1.199
	c-0.036,0.024-0.072,0.049-0.108,0.074c-0.585,0.404-1.175,0.801-1.771,1.189c-0.008,0.006-0.016,0.01-0.023,0.016
	c-3.086,2.012-6.317,3.82-9.675,5.407l0,0c-1.395,0.658-2.81,1.278-4.245,1.858l0,0c-1.278,0.517-2.573,1.002-3.884,1.455
	c-0.02,0.008-0.04,0.016-0.061,0.022c-0.629,0.217-1.263,0.426-1.898,0.628c-0.036,0.012-0.071,0.023-0.107,0.035
	c-0.662,0.209-1.329,0.41-1.998,0.604l0,0c-7.161,2.059-14.727,3.165-22.549,3.165c-9.237,0-18.113-1.54-26.389-4.374
	c-0.663-0.227-1.321-0.463-1.977-0.706c-0.054-0.021-0.107-0.041-0.161-0.062c-0.619-0.231-1.234-0.47-1.845-0.716
	c-0.04-0.017-0.08-0.032-0.12-0.049c-0.632-0.256-1.261-0.519-1.885-0.79c-0.013-0.005-0.024-0.01-0.036-0.016
	c-0.648-0.281-1.292-0.571-1.932-0.869l0,0c-0.133-0.062-0.267-0.124-0.399-0.187c-3.358-1.587-6.59-3.396-9.677-5.409
	c-0.006-0.004-0.013-0.008-0.019-0.012c-0.598-0.39-1.188-0.787-1.775-1.193c-0.034-0.023-0.069-0.047-0.104-0.071
	c-0.567-0.394-1.131-0.794-1.688-1.201c-0.032-0.024-0.065-0.048-0.098-0.071c-3.537-2.594-6.857-5.466-9.927-8.584
	c-0.026-0.027-0.052-0.053-0.077-0.08c-0.478-0.486-0.949-0.979-1.414-1.477c-0.043-0.045-0.084-0.09-0.127-0.135
	c-0.457-0.492-0.908-0.99-1.354-1.492c-0.034-0.04-0.069-0.078-0.104-0.118c-0.472-0.534-0.937-1.075-1.394-1.621
	c-11.818-14.135-18.935-32.335-18.935-52.201c0-22.016,8.74-41.988,22.936-56.645l0,0c6.376-6.583,13.853-12.089,22.134-16.229
	c0.286-0.143,0.575-0.282,0.862-0.422c0.352-0.17,0.701-0.343,1.056-0.508c0.555-0.26,1.112-0.513,1.674-0.76
	c0.156-0.069,0.312-0.137,0.469-0.205c0.551-0.238,1.104-0.47,1.662-0.697c0.146-0.059,0.292-0.121,0.439-0.179
	c0.69-0.276,1.386-0.545,2.085-0.802l0,0c8.764-3.225,18.234-4.986,28.117-4.986c8.896,0,17.457,1.432,25.47,4.069
	c2.958,0.973,5.841,2.111,8.639,3.403l0,0c0.11,0.051,0.222,0.104,0.332,0.155l0,0c9.044,4.228,17.182,10.066,24.045,17.149
	c14.202,14.658,22.948,34.635,22.948,56.657C385.452,416.357,378.336,434.558,366.519,448.691z"/>
<g>
	<path d="M318.492,386.573c0.956-1.051,10.992-13.094,11.757-15.388c0.764-2.294,0.955-4.684,0.955-6.309s-1.146-4.014-3.154-4.014
		c-2.007,0-4.301,2.39-4.301,5.066c0,2.676,0.669,5.353,1.242,5.448c0.574,0.095,0.574,0.096-0.19,0.86
		c-0.765,0.765-4.397,1.529-9.271,0.191c-4.875-1.338-8.601-3.154-9.94-3.25c-1.338-0.095-1.721,0.764-2.199,1.243
		c-0.478,0.478-2.771,3.346-5.926,4.97s-6.021,1.911-6.882,2.771s-1.529,2.389-1.529,3.441c0,1.051,0.191,14.624,0.191,15.388
		c0,0.765,0.669,2.962,2.963,3.824c2.294,0.859,5.926,3.059,6.403,3.822c0.479,0.766,1.052,0.479,0.479,1.529
		c-0.573,1.052-12.043,15.389-12.616,16.249c-0.574,0.86-0.001,2.294,0.668,2.677c0.67,0.381,1.816,0.478,2.964-0.383
		c1.146-0.86,5.544-3.059,8.315-2.963s8.22,1.146,11.183,2.867c1.721,0.859,3.059,0.573,3.919-0.096
		c0.859-0.669,4.588-3.728,6.021-4.301c1.434-0.574,6.021-2.39,7.264-2.581c1.242-0.19,1.721-0.765,1.816-3.44
		c0.095-2.676,0.19-17.396,0.19-18.16s-0.286-2.39-2.103-3.154s-6.117-2.198-7.742-4.396
		C317.919,387.051,318.492,386.573,318.492,386.573z M316.563,413.81c0,1.104-0.401,1.105-0.804,0.302
		c-3.014-3.215-14.063-3.215-15.571-2.411c0.604-1.507,7.735-11.05,8.941-12.256c0,0,0.201-0.302,1.104-0.503
		c0.904-0.2,5.727,3.517,6.128,4.119C316.765,403.664,316.563,412.705,316.563,413.81z M308.743,394.124
		c0,0-0.191,0.287-1.052,0.478c-0.86,0.191-5.447-3.346-5.83-3.919c-0.382-0.573-0.191-9.176-0.191-10.227
		c0-1.051,0.383-1.052,0.765-0.287c2.869,3.059,13.381,3.059,14.815,2.294C316.676,383.896,309.89,392.977,308.743,394.124z"/>
	<path d="M352.905,420.264c0.717,0.145,1.362,0.287,1.864-0.286c0.501-0.573,4.874-5.591,5.161-7.599
		c0.286-2.008-0.287-2.223-1.649-2.939c-1.361-0.717-7.383-3.44-8.1-4.373c-0.717-0.932-2.939-0.788-3.943-0.071
		c-1.003,0.718-8.889,6.667-10.179,7.24s-2.581,1.864-2.652,4.731c-0.072,2.867,0.287,25.018-0.072,27.24
		c-0.357,2.223,0.216,3.44-0.859,4.945c-1.075,1.506-2.294,3.012-1.649,4.016c0.646,1.003,3.656,1.576,4.731,1.72
		s8.674,3.226,9.605,4.229c0.933,1.004,3.083,0.645,4.158-0.287s9.964-8.602,10.896-9.176c0.933-0.573,0.86-1.648,0.574-2.007
		c-0.287-0.358-1.435-0.358-2.079,0.144c-0.646,0.502-3.441,2.867-4.086,2.939c-0.646,0.071-8.172-3.154-9.104-4.086
		c-0.43-0.502-0.86-27.169-0.501-28.244c0.357-1.075,0.43-2.365,0.859-2.438C346.311,415.892,352.188,420.121,352.905,420.264z"/>
	<path d="M273.575,353.024c0.955-1.051,10.991-13.094,11.756-15.388s0.956-4.683,0.956-6.308s-1.147-4.015-3.154-4.015
		c-2.008,0-4.302,2.39-4.302,5.066s0.67,5.353,1.243,5.448c0.573,0.096,0.573,0.096-0.191,0.86s-4.396,1.529-9.271,0.191
		c-4.874-1.338-8.602-3.154-9.939-3.25c-1.339-0.096-1.721,0.765-2.198,1.242c-0.479,0.479-2.772,3.346-5.927,4.971
		c-3.153,1.625-6.021,1.911-6.882,2.771c-0.859,0.86-1.529,2.39-1.529,3.441s0.191,14.624,0.191,15.388s0.669,2.963,2.963,3.823
		s5.926,3.059,6.404,3.823c0.478,0.765,1.051,0.478,0.478,1.529c-0.573,1.051-12.043,15.388-12.616,16.249s0,2.294,0.669,2.676
		c0.669,0.382,1.816,0.478,2.963-0.382c1.147-0.86,5.544-3.059,8.315-2.963s8.22,1.147,11.183,2.868
		c1.721,0.86,3.059,0.573,3.919-0.096s4.588-3.728,6.021-4.301c1.434-0.573,6.021-2.389,7.264-2.58
		c1.243-0.191,1.721-0.765,1.816-3.441c0.096-2.676,0.191-17.395,0.191-18.16s-0.287-2.389-2.104-3.154
		c-1.815-0.765-6.117-2.198-7.741-4.396C273.001,353.502,273.575,353.024,273.575,353.024z M271.646,380.262
		c0,1.104-0.401,1.105-0.803,0.301c-3.015-3.214-14.064-3.214-15.571-2.411c0.603-1.507,7.735-11.05,8.94-12.255
		c0,0,0.201-0.302,1.105-0.503c0.904-0.201,5.726,3.516,6.128,4.119C271.847,370.115,271.646,379.156,271.646,380.262z
		 M263.825,360.575c0,0-0.19,0.287-1.051,0.478c-0.86,0.191-5.448-3.345-5.83-3.919c-0.383-0.574-0.191-9.176-0.191-10.227
		c0-1.051,0.382-1.051,0.765-0.287c2.867,3.059,13.381,3.059,14.814,2.294C271.759,350.349,264.973,359.428,263.825,360.575z"/>
</g>
</svg>
