<?xml version="1.0" encoding="utf-8"?>
<!-- Generator: Adobe Illustrator 16.0.0, SVG Export Plug-In . SVG Version: 6.00 Build 0)  -->
<!DOCTYPE svg PUBLIC "-//W3C//DTD SVG 1.1//EN" "http://www.w3.org/Graphics/SVG/1.1/DTD/svg11.dtd">
<svg version="1.1" id="Layer_1" xmlns="http://www.w3.org/2000/svg" xmlns:xlink="http://www.w3.org/1999/xlink" x="0px" y="0px"
	 width="921px" height="474px" viewBox="0 0 921 474" enable-background="new 0 0 921 474" xml:space="preserve">
<g>
	<defs>
		<rect id="SVGID_1_" x="2.139" y="9.464" width="906.695" height="455.842"/>
	</defs>
	<clipPath id="SVGID_2_">
		<use xlink:href="#SVGID_1_"  overflow="visible"/>
	</clipPath>
	<g clip-path="url(#SVGID_2_)">
		<defs>
			<rect id="SVGID_3_" x="2.139" y="9.464" width="906.695" height="455.842"/>
		</defs>
		<clipPath id="SVGID_4_">
			<use xlink:href="#SVGID_3_"  overflow="visible"/>
		</clipPath>
		<path clip-path="url(#SVGID_4_)" fill="#58595B" d="M872.038,312.996c-6.976,5.433-13.944,10.875-20.932,16.295
			c-7.168,5.56-15.069,9.598-24.027,11.371c-2.185,0.434-3.699,1.472-4.734,3.561c-1.112,2.244-2.634,4.289-4.017,6.395
			c-6.146,9.364-14.998,13.918-26.024,14.548c-2.43,0.139-4.864,0.22-7.298,0.237c-1.912,0.015-2.727-1.005-2.83-2.944
			c-0.165-3.087,1.008-5.593,2.936-7.839c5.025-5.852,11.502-9.783,18.164-13.385c4.652-2.515,9.547-4.579,14.262-6.986
			c1.057-0.54,2.14-1.512,2.646-2.559c2.771-5.713,4.241-11.754,3.881-18.149c-0.229-4.06-0.549-8.114-0.857-12.591
			c-1.229,0.646-2.236,1.072-3.13,1.669c-3.615,2.409-7.454,4.569-10.742,7.37c-11.363,9.684-24.831,14.772-39.042,18.15
			c-5.785,1.375-11.756,2.093-17.684,2.693c-3.253,0.33-3.566-0.521-3.824-3.785c-0.15-1.898-0.92-3.749-1.41-5.621
			c-1.801,0.682-3.934,0.959-5.347,2.115c-6.548,5.36-14.39,7.757-22.323,9.562c-12.089,2.75-24.309,4.939-36.514,7.144
			c-2.59,0.468-5.383,0.202-8.031-0.13c-5.597-0.699-8.463-4.01-8.664-9.598c-0.035-0.947-0.005-1.898-0.005-3.477
			c-1.306,0.973-2.229,1.656-3.147,2.346c-7.391,5.538-14.792,11.16-24.125,12.943c-3.881,0.742-7.951,1.039-11.891,0.807
			c-6.371-0.377-10.377-4.932-10.379-11.803c-0.001-3.586,0.912-7.189,1.586-10.752c0.578-3.064,1.418-6.079,2.106-9.123
			c0.132-0.584,0.187-1.213,0.131-1.809c-0.408-4.33-1.782-5.237-5.799-3.817c-8.514,3.011-15.529,8.422-22.441,14.009
			c-5.341,4.316-10.616,8.728-16.121,12.828c-4.42,3.291-9.247,5.84-15.028,5.937c-2.346,0.04-3.179-0.757-3.168-3.185
			c0.041-8.607,3.178-15.744,9.67-21.372c2.101-1.82,4.353-3.464,6.52-5.21c0.812-0.652,1.639-1.303,2.353-2.057
			c2.675-2.822,2.29-4.324-1.474-5.416c-5.754-1.67-11.393-0.463-16.954,1.013c-12.757,3.384-24.111,9.772-35.098,16.837
			c-8.553,5.499-16.884,11.343-25.428,16.855c-2.441,1.576-5.215,2.717-7.962,3.707c-1.737,0.625-2.855-0.049-2.794-2.359
			c0.181-6.775,2.596-12.473,8.088-16.459c4.49-3.258,9.348-6.006,14.015-9.021c3.449-2.229,6.562-4.799,8.513-9.26
			c-5.133,1.986-9.786,3.803-14.452,5.586c-8.965,3.426-17.538,7.594-25.256,13.367c-2.916,2.18-5.743,4.477-8.641,6.682
			c-7.73,5.883-16.309,6.711-25.456,4.279c-3.529-0.938-7.078-1.67-9.833-4.434c-0.641-0.643-2.248-0.991-3.078-0.654
			c-2.86,1.158-5.771,2.393-8.296,4.132c-3.642,2.509-6.934,5.521-10.427,8.251c-8.749,6.838-18.738,7.81-29.199,5.779
			c-6.224-1.208-9.645-5.144-9.562-12.457c-10.625,4.817-21.058,8.914-30.847,14.204c-6.83,3.69-12.938,4.925-19.833,0.938
			c-5.376-3.108-7.701-7.836-5.697-13.801c1.114-3.316,2.879-6.527,4.891-9.407c3.33-4.769,7.214-9.148,10.634-13.86
			c1.922-2.648,3.731-5.49,4.965-8.501c1.807-4.407-1.393-7.941-6.022-7.114c-1.537,0.274-3.151,0.18-4.657,0.547
			c-3.505,0.856-7.219,1.381-10.4,2.948c-10.555,5.204-19.108,12.87-26.047,22.388c-4.557,6.25-9.183,12.457-14.009,18.5
			c-1.986,2.486-4.467,4.623-6.934,6.662c-1.594,1.318-3.615,2.396-5.755,1.143c-1.346-0.787-1.496-4.557-0.277-6.582
			c1.745-2.901,3.578-5.76,5.521-8.532c4.185-5.973,8.464-11.878,12.441-18.204c-0.874,0.573-1.732,1.174-2.626,1.715
			c-9.281,5.624-18.554,11.264-27.876,16.82c-1.07,0.637-2.417,1.043-3.658,1.109c-2.162,0.114-2.974-1.182-1.723-2.977
			c1-1.434,2.487-2.673,4.01-3.567c7.037-4.134,14.489-7.646,21.171-12.276c7.834-5.428,14.995-11.824,22.509-17.724
			c5.531-4.343,10.983-8.82,16.788-12.772c8.183-5.571,15.331-12.09,21.937-19.5c7.677-8.613,16.263-16.421,24.511-24.521
			c7.069-6.941,14.221-13.798,21.33-20.7c16.805-16.317,34.239-31.908,53.879-44.777c4.427-2.901,9.536-4.987,14.597-6.63
			c4.847-1.573,8.516,1.59,7.707,5.95c-0.206,1.106-0.885,2.333-1.724,3.079c-3.826,3.404-7.564,6.976-11.745,9.899
			c-9.736,6.807-18.862,14.307-26.902,23.031c-11.765,12.765-26.002,22.489-39.592,33.049c-13.93,10.823-27.575,22.02-41.182,33.25
			c-2.91,2.402-5.191,5.592-7.6,8.551c-0.525,0.646-0.712,2.016-0.384,2.753c0.223,0.501,1.699,0.821,2.473,0.636
			c3.454-0.828,6.815-2.07,10.289-2.779c4.133-0.842,8.33-1.573,12.53-1.823c3.247-0.192,4.415,1.423,4.504,4.727
			c0.332,12.265-4.67,22.45-12.433,31.483c-3.853,4.482-8.04,8.674-11.961,13.099c-3.195,3.604-2.967,4.585,1.114,7.206
			c2.585,1.659,5.453,2.156,8.239,1.09c7.04-2.696,13.978-5.656,20.956-8.512c0.161-0.066,0.315-0.149,0.476-0.217
			c10.691-4.451,19.851-10.734,27.689-19.562c8.533-9.609,18.713-17.641,29.312-25.02c4.096-2.852,8.374-4.792,13.567-4.418
			c3.132,0.225,6.073,0.746,8.495,2.788c2.385,2.013,4.903,2.074,7.515,0.8c2.259-1.104,4.436-2.385,6.603-3.666
			c2.91-1.724,5.99-2.197,9.282-1.522c2.897,0.595,3.962,2.036,3,4.839c-0.632,1.843-1.696,3.623-2.906,5.165
			c-3.22,4.103-6.679,8.017-9.926,12.099c-1.235,1.553-2.304,3.282-3.183,5.062c-2.299,4.656-1.002,9.916,3.06,13.027
			c4.026,3.083,9.279,2.65,13.45-0.323c3.942-2.811,8.271-5.114,12.56-7.396c21.397-11.375,42.873-22.604,64.24-34.036
			c5.969-3.193,11.741-6.778,17.456-10.415c3.914-2.49,7.516-1.338,11.059,0.432c2.271,1.135,2.651,3.612,0.875,5.785
			c-2.582,3.158-5.421,6.107-8.186,9.113c-1.926,2.094-3.91,4.133-5.61,6.791c1.546-0.281,3.108-0.494,4.636-0.855
			c6.965-1.65,13.01-5.232,18.949-9.055c3.797-2.444,7.604-4.887,11.531-7.109c3.444-1.948,7.209-2.44,11.105-1.461
			c2.562,0.643,4.142,2.346,3.628,4.896c-0.586,2.908-1.415,5.95-2.947,8.436c-2.032,3.301-4.867,6.104-7.32,9.15
			c-2.757,3.422-4.979,7.092-5.274,11.898c3.195,0.451,6.068-0.291,8.521-1.91c3.613-2.385,7.082-5.021,10.418-7.783
			c6.291-5.211,12.244-10.847,18.71-15.822c6.423-4.943,13.722-8.178,22.067-8.295c3.25-0.045,3.509,0.316,3.624,3.58
			c0.126,3.553-1.122,6.498-3.747,8.795c-1.825,1.596-3.753,3.117-5.802,4.408c-4.677,2.949-8.388,6.762-10.893,11.68
			c-2.399,4.712-5.068,9.342-6.901,14.273c-2.59,6.967,2.192,14.99,9.393,15.976c2.444,0.335,5.369-0.085,7.558-1.187
			c5.247-2.643,10.379-5.616,15.217-8.949c15.732-10.84,30.97-22.465,48.38-30.615c5.715-2.675,11.629-4.992,17.613-6.992
			c3.585-1.198,4.985,0.43,3.764,4.092c-0.598,1.792-1.831,3.695-3.329,4.801c-4.529,3.346-9.263,6.431-14.038,9.422
			c-7.357,4.609-14.912,8.912-22.18,13.654c-2.486,1.623-4.557,4.025-6.459,6.362c-1.566,1.925-3.046,4.308-1.436,6.905
			c1.626,2.625,4.298,3.305,7.266,3.121c9.937-0.612,19.301-3.353,28.244-7.615c8.678-4.136,16.613-9.439,23.98-15.594
			c0.908-0.76,1.617-1.791,2.305-2.777c4.824-6.928,10.727-12.404,19.456-13.629c2.616-0.367,5.376-0.029,8.026,0.32
			c0.906,0.119,2.069,1.119,2.384,1.982c0.233,0.641-0.517,1.906-1.164,2.561c-5.069,5.131-10.252,10.15-15.328,15.275
			c-1.406,1.419-2.729,3.002-1.321,5.258c1.289,2.062,3.217,2.517,5.411,2.321c7.911-0.704,15.649-2.255,23.076-5.106
			c9.597-3.684,16.708-10.764,23.89-17.733c5.67-5.503,11.18-11.2,17.18-16.32c2.521-2.151,4.459-4.31,5.886-7.272
			c1.608-3.342,3.551-6.582,5.765-9.555c2.557-3.434,6.151-4.535,10.438-3.471c4.926,1.225,6.344,3.506,4.862,8.373
			c-1.244,4.087-3.999,7.112-7.216,9.686c-2.638,2.113-5.412,4.107-8.335,5.793c-2.141,1.232-3.548,2.803-4.702,4.951
			c-3.507,6.525-4.373,13.172-3.336,20.617c0.793,5.693-0.463,11.674-0.82,17.734c4.217-1.246,9.26-2.206,13.836-4.223
			c5.521-2.434,10.684-5.701,15.929-8.732c2.929-1.692,5.644-3.764,8.604-5.396c0.93-0.512,2.344-0.148,3.536-0.188V312.996z
			 M393.23,328.707c0.215,0.118,0.43,0.236,0.645,0.355c-0.037,2.688,1.117,4.104,3.722,4.896c2.731,0.83,4.976-0.357,7.107-1.674
			c11.872-7.332,22.033-16.578,30.532-27.643c0.786-1.023,1.438-2.175,2.006-3.339c1.292-2.651,0.642-4.504-2.029-5.72
			c-2.742-1.248-5.375-1.154-7.779,0.896c-10.311,8.788-20.697,17.49-30.876,26.427C394.972,324.299,394.316,326.746,393.23,328.707
			"/>
		<path clip-path="url(#SVGID_4_)" fill="#58595B" d="M37.378,370.314c2.647-7.548,4.669-15.393,8.073-22.582
			c6.936-14.654,16.438-27.711,28.384-38.674c4.716-4.328,10.558-7.656,16.328-10.566c15.294-7.712,31.152-14.104,47.844-18.197
			c2.369-0.581,4.843-0.87,7.284-0.984c2.711-0.127,4.378,1.439,5.143,4.007c0.756,2.542,0.484,4.882-2.106,6.075
			c-6.591,3.037-13.129,6.281-19.948,8.719c-12.036,4.301-24.066,8.46-34.644,15.922c-20.432,14.412-33.951,33.465-38.889,58.16
			c-1.05,5.25-1.634,10.713-1.453,16.045c0.116,3.403,1.367,7.189,3.26,10.039c8.638,13.002,20.826,21.131,36.021,24.725
			c0.641,0.152,1.316,0.281,1.967,0.25c9.918-0.463,19.909-0.354,29.732-1.586c13.15-1.648,24.197-8.294,34.033-16.953
			c13.333-11.74,23.187-26.141,31.408-41.72c14.154-26.821,23.507-55.265,28-85.247c1.863-12.43,2.817-24.998,4.716-37.422
			c3.167-20.709,9.838-40.393,19.167-59.098c4.76-9.544,10.228-18.755,15.717-27.913c9.817-16.378,24.8-27.329,40.395-37.539
			c5.37-3.516,10.895-6.795,16.648-10.368c-1.951-1.672-3.905-3.114-5.579-4.829c-3.685-3.774-7.395-7.549-10.764-11.598
			c-1.785-2.146-2.259-4.911-1.229-7.784c0.926-2.578,2.716-3.531,5.069-2.468c3.08,1.391,6.217,2.887,8.874,4.929
			c5.614,4.315,10.932,9.014,16.62,13.763c3.319-2.107,6.872-4.396,10.458-6.632c13.755-8.575,27.841-16.491,43.667-20.65
			c9.093-2.389,18.305-4.031,27.773-2.501c15.584,2.518,28.496,17.941,29.063,33.679c0.391,10.819-4.581,17.75-13.632,22.506
			c-7.971,4.188-16.596,6.241-25.413,7.602c-13.861,2.139-27.696,2.317-41.431-0.925c-12.054-2.845-22.928-8.159-32.817-16.259
			c-3.203,2.517-6.465,4.899-9.527,7.517c-14.81,12.664-28.046,26.791-39.204,42.797c-8.646,12.404-13.386,26.478-16.391,41.072
			c-3.391,16.471-6.068,33.089-8.995,49.656c-5.572,31.53-12.732,62.609-26.377,91.809c-10.099,21.611-22.872,41.471-40.449,57.769
			c-14.815,13.737-31.403,24.921-50.878,31.185c-3.304,1.062-6.767,1.631-10.157,2.428h-18.743c-1.392-0.192-2.785-0.369-4.174-0.58
			c-7.544-1.148-15.229-1.729-22.601-3.566c-20.966-5.226-34.259-18.256-38.553-39.802c-0.625-3.135-1.131-6.293-1.692-9.44V370.314
			z M337.537,106.016c0.967,0.655,1.673,1.303,2.502,1.669c6.891,3.038,13.597,6.708,20.755,8.886
			c15.05,4.581,30.457,3.731,45.771,1.084c5.806-1.003,11.454-2.692,15.816-7.029c5.145-5.114,4.833-10.611-1.266-14.441
			c-10.23-6.423-21.627-9.54-33.633-9.521C368.545,86.692,353.019,95.977,337.537,106.016"/>
		<path clip-path="url(#SVGID_4_)" fill="#8DC63F" d="M715.721,238.932c2.167-0.936,4.14-1.87,6.183-2.613
			c0.558-0.203,1.363,0.062,1.988,0.295c1.968,0.734,3.84,1.834,5.862,2.291c7.762,1.758,13.758-3.583,13.144-11.541
			c-0.668-8.664-6.501-15.559-15.1-17.155c-4.277-0.794-8.707-0.839-13.076-1.028c-1.547-0.067-2.388-0.364-2.624-2.031
			c-0.238-1.676-0.762-3.312-1.199-5.125c0.594-0.187,1.096-0.453,1.613-0.49c6.357-0.448,12.67-0.23,18.877,1.39
			c9.965,2.601,15.216,9.693,18.021,19.037c2.406,8.013,1.509,16.108,0.261,24.167c-0.747,4.817,0.033,4.576-5.446,4.619
			c-10.646,0.084-19.818-3.758-27.732-10.771c-0.183-0.162-0.37-0.322-0.524-0.51C715.872,239.352,715.834,239.188,715.721,238.932"
			/>
		<path clip-path="url(#SVGID_4_)" fill="#8DC63F" d="M807.59,186.042c-0.604-8.722-0.7-17.071,2.871-24.952
			c4.449-9.819,12.912-14.055,22.971-14.834c6.576-0.509,13.271,0.517,19.912,0.849c2.285,0.114,2.953,1.453,3.031,3.563
			c0.41,11.004-3.827,22.119-12.004,30.718c-0.664-1.714-1.056-3.395-1.918-4.783c-1.121-1.804-0.695-3.165,0.217-4.878
			c0.936-1.757,1.695-3.764,1.901-5.727c0.882-8.38-5.034-13.51-13.505-11.911c-8.849,1.67-14.555,8.063-15.686,17.852
			c-0.392,3.382-0.495,6.816-0.455,10.223c0.021,1.747-0.503,2.509-2.189,2.762C811.078,185.171,809.449,185.628,807.59,186.042"/>
		<path clip-path="url(#SVGID_4_)" fill="#8DC63F" d="M787.089,50.71c-2.306,0.964-4.198,1.923-6.199,2.511
			c-0.833,0.245-2.022-0.076-2.835-0.526c-3.195-1.77-6.46-3.128-10.209-2.508c-4.715,0.78-7.647,3.947-8.158,8.716
			c-1.091,10.195,5.969,18.925,17.057,20.746c3.668,0.603,7.439,0.681,11.169,0.766c1.496,0.035,2.271,0.38,2.542,1.879
			c0.328,1.809,0.784,3.594,1.26,5.723c-10.879,0.388-21.358,0.706-30.062-6.493c-5.5-4.549-7.938-11.022-9.242-17.835
			c-1.41-7.372-0.581-14.762,0.694-22.075c0.158-0.904,1.392-2.25,2.214-2.316C767.52,38.309,777.963,42.363,787.089,50.71"/>
		<path clip-path="url(#SVGID_4_)" fill="#8DC63F" d="M657.516,109.089c0.992,2.316,1.918,4.289,2.661,6.33
			c0.202,0.558-0.007,1.375-0.265,1.97c-0.773,1.782-1.84,3.452-2.48,5.275c-2.788,7.945,2.639,14.764,11.049,13.981
			c10.516-0.979,17.213-7.726,18.389-18.728c0.403-3.784,0.459-7.605,0.695-11.792c2.113-0.53,4.419-1.108,7.082-1.777
			c0.426,10.727,0.917,21.09-5.932,29.901c-4.17,5.365-10.183,7.973-16.623,9.464c-8.081,1.872-16.172,0.924-24.191-0.579
			c-0.76-0.142-1.805-1.46-1.855-2.285C645.312,128.715,649.234,118.215,657.516,109.089"/>
		<path clip-path="url(#SVGID_4_)" fill="#8DC63F" d="M679.983,150.525c-2.544,1.864-4.704,3.556-6.997,5.044
			c-0.507,0.329-1.489-0.007-2.236-0.132c-2.143-0.357-4.312-1.227-6.407-1.064c-6.294,0.487-10.493,8.444-7.816,14.805
			c0.89,2.114,2.237,4.252,3.923,5.773c5.73,5.17,12.164,9.267,19.797,11.081c1.368,0.325,1.983,0.827,1.817,2.258
			c-0.233,2.006-0.376,4.023-0.56,6.063c-21.778-5.631-33.027-17.023-35.125-35.875c-0.323-2.901-0.277-5.841-0.508-8.755
			c-0.156-1.981,0.886-2.813,2.615-3.121c1.039-0.184,2.084-0.417,3.133-0.453c7.682-0.262,15.28,0.395,22.725,2.367
			C676.195,149.007,677.967,149.797,679.983,150.525"/>
		<path clip-path="url(#SVGID_4_)" fill="#8DC63F" d="M709.693,75.422c-2.755-0.23-5.237-0.438-7.724-0.647
			c1.872-18.287,17.227-33.595,35.599-35.596c2.581-0.281,5.19-0.299,7.782-0.491c2.121-0.157,3.162,0.905,3.463,2.886
			c0.122,0.804,0.268,1.607,0.331,2.416c0.705,8.918-0.091,17.686-2.715,26.258c-0.255,0.831-0.717,1.599-1.148,2.54
			c-1.727-2.353-3.522-4.451-4.851-6.812c-0.443-0.788,0.163-2.3,0.541-3.394c3.015-8.705-5.772-15.164-12.565-13.6
			c-3.678,0.847-6.318,3.206-8.59,6.06C715.061,61.017,711.232,67.465,709.693,75.422"/>
		<path clip-path="url(#SVGID_4_)" fill="#8DC63F" d="M756.829,217.043c1.719,2.429,3.349,4.641,4.85,6.936
			c0.276,0.423,0.215,1.255,0.008,1.779c-3.093,7.825,0.28,11.645,4.374,13.967c5.142,2.918,10.819,1.766,15.088-3.196
			c4.871-5.663,8.842-11.895,10.637-19.247c0.461-1.89,1.2-2.608,3.096-2.321c1.752,0.265,3.529,0.374,5.316,0.554
			c-5.438,21.36-16.469,33.634-36.453,35.181c-2.35,0.182-4.714,0.192-7.053,0.451c-2.324,0.256-3.418-0.9-3.528-2.975
			c-0.211-3.967-0.663-7.99-0.239-11.905c0.619-5.701,1.904-11.331,2.96-16.98C756.023,218.536,756.482,217.845,756.829,217.043"/>
		<path clip-path="url(#SVGID_4_)" fill="#8DC63F" d="M820.486,103.18c0.156-2.585,0.311-5.138,0.469-7.75
			c22.964,6.103,34.23,18.182,35.466,38.555c0.103,1.695,0.169,3.398,0.137,5.096c-0.061,3.15-0.508,3.9-3.778,3.991
			c-5.259,0.146-10.545,0.059-15.792-0.319c-4.852-0.35-9.661-1.234-14.246-3.656c2.444-1.75,4.704-3.505,7.124-4.998
			c0.545-0.335,1.684,0.145,2.494,0.416c5.356,1.791,9.62,0.874,12.648-2.774c3.097-3.731,3.289-9.011,0.112-13.321
			c-4.207-5.707-10.119-9.317-16.398-12.294C826.18,104.919,823.406,104.206,820.486,103.18"/>
		<path clip-path="url(#SVGID_4_)" fill="#8DC63F" d="M700.46,186.108c1.437-7.058,3.79-13.416,7.442-19.23
			c8.373-13.332,20.4-20.084,36.245-19.748c3.809,0.081,4.411,0.783,4.866,4.533c1.013,8.348-0.33,16.301-3.726,24.272
			c-1.194-1.978-2.263-3.686-3.253-5.438c-0.213-0.377-0.195-0.915-0.187-1.376c0.008-0.397,0.169-0.79,0.24-1.188
			c0.645-3.598,1.283-7.405-2.318-9.755c-3.606-2.354-7.606-1.885-11.396-0.083c-10.314,4.903-16.362,13.352-19.396,24.062
			c-0.77,2.717-2.036,3.747-4.685,3.633C703.116,185.738,701.927,185.976,700.46,186.108"/>
		<path clip-path="url(#SVGID_4_)" fill="#8DC63F" d="M791.938,196.617c-14.942-3.724-27.248-10.274-34.26-24.171
			c-3.444-6.825-4.494-14.183-3.99-21.791c0.115-1.72,0.857-2.746,2.553-3.036c8.832-1.513,17.26-0.196,25.675,3.603
			c-3.222,2.003-5.755,4.112-9.915,3.104c-5.772-1.398-9.004,1.67-9.088,7.571c-0.098,6.875,3.926,11.715,8.211,16.306
			c4.666,4.999,10.686,7.929,17.165,9.781c2.361,0.674,3.364,1.75,3.294,4.132C791.542,193.468,791.785,194.83,791.938,196.617"/>
		<path clip-path="url(#SVGID_4_)" fill="#8DC63F" d="M720.266,138.903c3.197-1.842,5.529-3.864,9.523-3.231
			c8.029,1.271,12.006-5.048,8.57-12.927c-4.656-10.679-13.066-17.01-23.966-20.14c-2.911-0.836-3.986-2.233-3.931-4.984
			c0.023-1.123,0.004-2.246,0.004-3.582c5.666,0.843,10.874,2.812,15.789,5.452c12.021,6.457,19.752,16.204,21.884,29.886
			c0.521,3.339,0.459,6.803,0.3,10.192c-0.045,0.931-1.299,2.438-2.191,2.597C737.424,143.734,728.87,142.729,720.266,138.903"/>
		<path clip-path="url(#SVGID_4_)" fill="#8DC63F" d="M757.506,113.846c0.53,0.934,0.783,1.542,1.176,2.042
			c1.799,2.29,2.225,4.639,1.676,7.646c-1.092,5.979,1.834,8.993,7.944,9.165c4.522,0.128,8.134-1.983,11.62-4.433
			c7.483-5.258,11.695-12.741,14.072-21.34c0.568-2.057,1.58-2.791,3.523-2.832c1.442-0.03,2.883-0.203,4.633-0.335
			c-1.158,5.943-2.975,11.354-5.732,16.419c-8.366,15.369-21.381,22.588-38.819,22.062c-2.31-0.07-3.452-1.124-3.702-3.306
			C752.913,130.371,753.781,122.069,757.506,113.846"/>
		<path clip-path="url(#SVGID_4_)" fill="#8DC63F" d="M738.665,219.268c-7.551,8.004-14.665,15.384-25.28,17.375
			c-8.913,1.672-17.288,0.487-23.598-6.893c-3.861-4.517-5.54-10.025-6.355-16.238c2.581,0.131,5.05,0.161,7.484,0.467
			c0.449,0.057,0.907,1.194,1.107,1.904c1.094,3.882,2.536,7.597,5.583,10.381c4.087,3.735,8.979,4.285,14.155,3.083
			c6.934-1.61,12.246-5.825,17.023-10.851c0.056-0.059,0.103-0.127,0.163-0.181c1.289-1.138,2.964-3.45,3.795-3.179
			C734.821,215.814,736.517,217.665,738.665,219.268"/>
		<path clip-path="url(#SVGID_4_)" fill="#8DC63F" d="M820.35,164.57c0.116-0.335,0.147-0.5,0.225-0.64
			c3.231-5.87,4.484-6.086,9.021-1.355c4.93,5.14,9.331,10.645,11.568,17.571c1.904,5.894,2.098,11.799,0.253,17.748
			c-2.925,9.434-11.677,14.619-21.976,15.628c0-2.479-0.059-4.952,0.066-7.415c0.019-0.353,0.889-0.768,1.432-0.969
			c1.6-0.591,3.276-0.981,4.844-1.64c9.012-3.783,11.971-12.28,7.891-22.186c-2.42-5.877-6.5-10.444-11.074-14.667
			C821.832,165.936,821.062,165.227,820.35,164.57"/>
		<path clip-path="url(#SVGID_4_)" fill="#8DC63F" d="M718.935,152.249c-2.276,1.909-4.095,3.653-6.15,5.048
			c-0.796,0.54-2.128,0.348-3.219,0.386c-5.571,0.194-11.225-0.184-16.698,0.64c-10.375,1.562-17.27,8.051-21.826,17.245
			c-0.503,1.015-0.983,2.042-1.632,3.39c-2.317-1.609-4.534-3.148-6.868-4.771c5.76-12.928,14.387-22.137,28.785-24.582
			C700.598,148.03,709.58,149.635,718.935,152.249"/>
		<path clip-path="url(#SVGID_4_)" fill="#8DC63F" d="M770.006,75.027c-1.938-1.64-3.764-3.184-6.045-5.114
			c3.344-3.158,6.239-6.2,9.451-8.861c6.075-5.033,12.924-8.404,21.014-8.626c11.216-0.308,19.343,5.32,22.923,15.997
			c0.813,2.425,1.269,4.97,1.981,7.833c-2.966-0.191-5.44-0.35-8.118-0.522c-0.456-1.478-0.882-3.018-1.406-4.524
			c-3.396-9.762-11.601-13.664-21.351-10.266c-6.096,2.124-10.868,6.076-15.215,10.662C772.24,72.66,771.244,73.717,770.006,75.027"
			/>
		<path clip-path="url(#SVGID_4_)" fill="#8DC63F" d="M743.4,111.896c-1.52-1.781-3.154-3.481-4.499-5.385
			c-0.52-0.736-0.493-1.933-0.523-2.926c-0.181-5.902,0.349-11.913-0.589-17.687c-1.668-10.261-8.039-17.311-17.324-21.783
			c-1.008-0.485-2.032-0.935-3.257-1.496c1.353-1.97,2.653-3.708,3.776-5.554c0.789-1.296,1.629-1.216,2.82-0.656
			c17.318,8.137,24.428,22.069,22.896,40.177c-0.435,5.128-1.634,10.191-2.483,15.284
			C743.944,111.879,743.672,111.887,743.4,111.896"/>
		<path clip-path="url(#SVGID_4_)" fill="#8DC63F" d="M682.529,76.834v7.749c-2.428,0.882-4.697,1.521-6.807,2.505
			c-7.617,3.556-10.618,10.095-8.621,18.28c1.602,6.562,5.4,11.73,10.119,16.343c0.581,0.568,1.244,1.061,1.771,1.674
			c0.854,0.995,2.521,2.522,2.27,3.012c-0.935,1.815-2.479,3.331-3.895,4.865c-0.188,0.204-1.121,0.045-1.438-0.243
			c-7.56-6.863-14.204-14.337-16.179-24.842c-2.87-15.265,6.238-27.589,21.684-29.337C681.812,76.796,682.199,76.834,682.529,76.834
			"/>
		<path clip-path="url(#SVGID_4_)" fill="#8DC63F" d="M784.816,227.793c-1.573,2.284-3.075,4.464-4.698,6.818
			c-11.73-5.28-20.522-13.091-23.638-25.849c-2.51-10.281-0.957-20.463,1.949-30.889c1.895,2.265,3.65,4.244,5.237,6.351
			c0.349,0.464,0.11,1.381,0.118,2.09c0.056,5.426-0.402,10.915,0.266,16.263c1.378,11.035,7.863,18.593,17.639,23.507
			c0.799,0.401,1.613,0.767,2.416,1.159C784.246,227.312,784.359,227.437,784.816,227.793"/>
		<path clip-path="url(#SVGID_4_)" fill="#8DC63F" d="M783.781,137.383c2.222-1.835,4.002-3.517,6.009-4.861
			c0.819-0.549,2.124-0.477,3.213-0.5c5.429-0.12,10.946,0.411,16.27-0.381c10.95-1.63,18.161-8.446,22.743-18.277
			c0.34-0.73,0.688-1.457,1.135-2.406c2.314,1.613,4.49,3.131,6.63,4.624c-5.002,13.543-15.552,22.795-29.32,24.693
			C801.497,141.51,792.85,139.959,783.781,137.383"/>
		<path clip-path="url(#SVGID_4_)" fill="#8DC63F" d="M658.758,186.474c2.634,1.367,4.875,2.468,7.04,3.703
			c0.477,0.272,0.823,0.977,0.991,1.552c1.829,6.293,6.252,9.664,12.412,11.06c5.713,1.295,11.463,0.972,17.216,0.289
			c1.034-0.123,2.072-0.223,3.267-0.351c0.52,2.625,1.002,5.057,1.535,7.746c-8.796,1.423-17.305,1.723-25.78-0.55
			c-4.739-1.271-8.921-3.481-12.104-7.309C659.525,198.038,658.695,192.607,658.758,186.474"/>
		<path clip-path="url(#SVGID_4_)" fill="#8DC63F" d="M792.432,238.341c1.28-2.474,2.4-4.792,3.688-7.013
			c0.308-0.532,1.129-0.879,1.784-1.082c5.954-1.838,9.216-6.068,10.669-11.912c1.539-6.193,0.906-12.428,0.293-18.658
			c-0.07-0.715-0.152-1.43-0.257-2.409c2.511-0.5,4.925-0.981,7.869-1.567c0.279,4.71,1.004,9.167,0.687,13.548
			c-0.385,5.292-0.982,10.747-2.678,15.726C811.189,234.651,803.178,239.199,792.432,238.341"/>
		<path clip-path="url(#SVGID_4_)" fill="#8DC63F" d="M843.527,103.29c-2.348-1.227-4.53-2.278-6.607-3.509
			c-0.594-0.353-1.072-1.169-1.277-1.869c-1.784-6.094-6.061-9.395-11.993-10.899c-6.197-1.571-12.429-0.931-18.663-0.307
			c-0.631,0.063-1.266,0.099-2.076,0.16c-0.497-2.522-0.974-4.945-1.508-7.656c1.831-0.265,3.406-0.581,4.995-0.707
			c7.731-0.615,15.433-0.752,22.877,1.962C839.44,84.173,844.459,92.123,843.527,103.29"/>
		<path clip-path="url(#SVGID_4_)" fill="#8DC63F" d="M709.625,52.196c-1.243,2.331-2.348,4.499-3.561,6.604
			c-0.285,0.492-0.887,0.96-1.435,1.118c-8.257,2.387-11.233,8.732-11.728,16.433c-0.336,5.24,0.277,10.542,0.461,15.815
			c0.011,0.31-0.03,0.621-0.054,1.068c-2.369,0.442-4.669,0.873-7.36,1.375c-0.268-1.851-0.637-3.639-0.766-5.444
			c-0.607-8.483-0.724-16.932,2.786-24.95C691.734,55.617,700.824,50.542,709.625,52.196"/>
		<path clip-path="url(#SVGID_4_)" fill="#8DC63F" d="M769.386,173.648c-1.217-2.068-2.368-3.899-3.356-5.815
			c-0.206-0.399,0.001-1.291,0.341-1.65c8.269-8.751,17.484-15.874,30.109-16.771c5.85-0.416,11.454,0.639,16.892,3.328
			c-1.5,2.069-2.912,4.017-4.363,6.019C791.975,153.105,779.977,161.027,769.386,173.648"/>
		<path clip-path="url(#SVGID_4_)" fill="#8DC63F" d="M743.911,207.469c-1.841-1.322-3.471-2.394-4.966-3.629
			c-0.422-0.349-0.764-1.269-0.613-1.768c4.336-14.371-1.165-25.536-11.369-35.188c-1.174-1.112-2.391-2.178-3.62-3.294
			c0.165-0.235,0.26-0.465,0.431-0.597c5.393-4.178,5.725-4.105,10.33,0.883c6.176,6.688,10.992,14.116,12.595,23.238
			C747.925,194.095,746.978,200.841,743.911,207.469"/>
		<path clip-path="url(#SVGID_4_)" fill="#8DC63F" d="M732.575,116.921c0.312,0.215,0.476,0.282,0.572,0.401
			c4.05,5.011,4.044,5.491-0.501,9.897c-6.912,6.702-14.723,11.852-24.455,13.285c-6.646,0.979-13.1,0.068-19.332-2.904
			c1.299-1.823,2.469-3.573,3.775-5.214c0.285-0.358,1.131-0.579,1.592-0.441c14.062,4.203,25.121-0.997,34.661-10.995
			C730.121,119.658,731.303,118.315,732.575,116.921"/>
		<path clip-path="url(#SVGID_4_)" fill="#8DC63F" d="M758.79,82.025c1.798,1.287,3.429,2.352,4.919,3.587
			c0.422,0.351,0.74,1.291,0.586,1.807c-4.525,15.231,1.802,26.682,12.647,36.579c0.769,0.702,1.573,1.364,2.762,2.39
			c-2.144,1.239-3.954,2.385-5.87,3.315c-0.436,0.212-1.411-0.134-1.839-0.539c-7.801-7.4-14.132-15.739-15.933-26.683
			C754.92,95.532,755.801,88.756,758.79,82.025"/>
		<path clip-path="url(#SVGID_4_)" fill="#8DC63F" d="M769.112,112.27c0.438,0.315,0.271,0.246,0.18,0.122
			c-3.839-5.221-3.561-6.33,2.056-9.394c11.207-6.114,23.18-9.117,35.939-9.17c2.17-0.009,2.969,0.613,2.59,2.803
			c-0.273,1.583-0.281,3.211-0.377,4.426c-7.068,1.057-14.104,1.447-20.738,3.286C782.119,106.184,775.877,109.472,769.112,112.27"
			/>
		<path clip-path="url(#SVGID_4_)" fill="#8DC63F" d="M692.672,196.285c0.215-3.105,0.381-5.505,0.566-8.185
			c14.353,0.191,27.629-3.12,39.947-11.541c1,2.217,2.066,4.181,2.699,6.276c0.158,0.521-0.94,1.701-1.709,2.177
			c-8.248,5.105-17.154,8.552-26.766,9.926C702.696,195.612,697.916,195.821,692.672,196.285"/>
		<path clip-path="url(#SVGID_4_)" fill="#8DC63F" d="M700.836,86.278c0.064-0.046,0.125-0.127,0.192-0.134
			c6.577-0.667,7.038-0.445,7.271,5.901c0.444,12.164,3.967,23.308,10.484,33.546c0.168,0.265,0.275,0.568,0.621,1.294
			c-1.934,0.893-3.748,1.931-5.698,2.516c-0.608,0.183-1.909-0.659-2.342-1.368c-4.913-8.059-8.388-16.71-9.765-26.07
			c-0.754-5.118-0.98-10.314-1.444-15.476C700.383,86.418,700.609,86.348,700.836,86.278"/>
		<path clip-path="url(#SVGID_4_)" fill="#8DC63F" d="M793.893,203.862c0.452-14.623-3.164-27.896-11.338-40.4
			c2.106-0.966,4.003-1.969,6.007-2.657c0.486-0.167,1.605,0.532,1.968,1.12c5.705,9.258,9.289,19.296,10.578,30.095
			c0.469,3.926,0.512,7.902,0.775,12.295C799.001,204.151,796.549,204.013,793.893,203.862"/>
		<path clip-path="url(#SVGID_4_)" fill="#8DC63F" d="M767.122,209.002c13.225-6.185,26.517-3.074,40.059-2.481
			c-0.138,2.561-0.263,4.866-0.399,7.431c-2.83-0.215-5.311-0.447-7.797-0.586c-7.468-0.416-14.941-0.886-22.289,1.122
			c-1.697,0.463-4.211,1.837-4.939,1.194C769.842,213.996,768.705,211.428,767.122,209.002"/>
		<path clip-path="url(#SVGID_4_)" fill="#8DC63F" d="M734.707,81.086c-13.239,6.239-26.325,3.153-39.232,2.711
			c-0.171-0.396-0.338-0.609-0.346-0.828c-0.218-6.366-0.216-6.311,6.051-6.221c5.838,0.083,11.694,0.305,17.509-0.068
			c3.42-0.219,6.798-1.388,10.144-2.317c1.227-0.341,1.953-0.279,2.571,0.869C732.453,77.182,733.576,79.092,734.707,81.086"/>
		<path clip-path="url(#SVGID_4_)" fill="#8DC63F" d="M812.219,88.729c0.581-0.134,0.889-0.247,1.203-0.271
			c5.84-0.44,5.865-0.2,5.592,5.566c-0.412,8.668-1.253,17.392,1.322,25.926c1.394,4.623,1.371,4.636-2.824,7.124
			c-0.828,0.491-1.691,0.925-2.773,1.513C808.615,115.482,811.773,102.03,812.219,88.729"/>
		<path clip-path="url(#SVGID_4_)" fill="#8DC63F" d="M687.904,161.241c6.014,13.25,3.113,26.544,2.552,40.126
			c-2.501-0.129-4.787-0.247-7.196-0.372c0.242-4.667,0.535-9.014,0.678-13.367c0.231-7.089,0.043-14.131-2.778-20.833
			c-0.187-0.442,0.168-1.459,0.589-1.749C683.609,163.763,685.586,162.648,687.904,161.241"/>
		<path clip-path="url(#SVGID_4_)" fill="#8DC63F" d="M803.227,196.07c-0.353-2.519-0.665-4.752-0.983-7.022
			c4.876-1.097,9.72-2.011,14.461-3.301c4.76-1.295,9.417-2.966,14.272-4.521c-0.094-0.074,0.087-0.001,0.152,0.129
			c2.992,5.965,2.775,6.67-3.341,9C819.943,193.344,811.838,195.262,803.227,196.07"/>
		<path clip-path="url(#SVGID_4_)" fill="#8DC63F" d="M700.899,197.333c2.495-0.309,4.718-0.584,6.591-0.817
			c2.634,9.724,5.225,19.285,7.936,29.292c-1.367,0.438-3.301,1.238-5.313,1.585c-0.56,0.097-1.638-1.021-1.989-1.801
			c-3.321-7.361-5.347-15.105-6.535-23.078C701.341,200.854,701.145,199.187,700.899,197.333"/>
		<path clip-path="url(#SVGID_4_)" fill="#8DC63F" d="M698.942,94.295c0.294,2.536,0.553,4.774,0.78,6.745
			c-9.643,2.63-19.141,5.222-29.051,7.925c0.434,0.337,0.256,0.268,0.195,0.142c-2.934-6.085-2.865-6.416,3.227-8.903
			C681.962,96.992,690.234,95.423,698.942,94.295"/>
		<path clip-path="url(#SVGID_4_)" fill="#8DC63F" d="M787.238,63.913c-0.283,0.203-0.041-0.021,0.242-0.165
			c5.207-2.645,5.877-2.428,8.084,2.897c3.319,8.006,4.979,16.425,6.084,24.974c0.029,0.218-0.1,0.457-0.188,0.818
			c-2.218,0.289-4.444,0.579-6.295,0.819C792.541,83.54,789.955,73.967,787.238,63.913"/>
		<path clip-path="url(#SVGID_4_)" fill="#58595B" d="M260.045,410.783c0-2.506,0-4.674-0.034-5.656
			c-0.034-1.117-0.44-1.693-1.287-1.693h-1.355c-0.169,0-0.203-0.102-0.203-0.236v-0.848c0-0.169,0.034-0.236,0.203-0.236
			c0.305,0,1.355,0.102,4.2,0.102c1.897,0,5.046-0.102,5.656-0.102c2.811,0,5.046,0.847,6.333,2.066
			c1.118,1.083,1.761,2.607,1.761,3.86c0,4.233-1.931,5.825-6.266,6.773v0.067c0.813,0.305,1.287,0.914,1.558,1.287
			c0.407,0.44,2.811,3.895,3.082,4.335c0.169,0.339,2.337,3.421,2.98,3.895c0.711,0.509,1.49,0.576,2.438,0.576
			c0.237,0,0.271,0.136,0.271,0.271v0.746c0,0.203-0.033,0.305-0.271,0.305c-0.271,0-1.151-0.102-2.642-0.102
			c-0.982,0-2.235,0.067-2.743,0.102c-0.373-0.34-1.118-1.49-1.423-1.931c-0.271-0.407-2.1-3.624-2.269-3.896
			c-0.135-0.236-1.761-2.675-2.167-3.149c-0.88-1.05-1.693-1.964-3.658-1.964c-0.305,0-0.644,0-1.118,0.102v1.896
			c0,1.998,0.034,5.791,0.068,6.299c0.068,0.712,0.338,1.321,0.847,1.321h2.134c0.237,0,0.271,0.102,0.271,0.271v0.746
			c0,0.236-0.034,0.305-0.373,0.305c-0.373,0-1.219-0.102-4.437-0.102c-3.082,0-3.861,0.102-4.233,0.102
			c-0.271,0-0.271-0.102-0.271-0.271v-0.779c0-0.169,0-0.271,0.169-0.271h1.389c0.745,0,1.321-0.237,1.321-1.151
			c0.068-3.354,0.068-6.537,0.068-9.754V410.783z M263.093,414.137c0.508,0.102,0.88,0.135,1.524,0.135
			c6.164,0,7.349-4.233,7.349-5.656c0-1.558-0.711-3.047-1.693-3.86c-1.321-1.05-2.811-1.558-5.622-1.558
			c-0.407,0-0.847,0.067-1.152,0.271c-0.237,0.169-0.406,0.542-0.406,1.084V414.137z"/>
		<path clip-path="url(#SVGID_4_)" fill="#58595B" d="M313.759,413.222c0.271,0,3.895-0.136,4.301-0.203
			c0.982-0.169,1.253-0.44,1.558-1.49c0.102-0.339,0.237-1.017,0.271-1.659c0-0.17,0.102-0.237,0.237-0.237l0.847,0.034
			c0.169,0,0.237,0.135,0.203,0.271c-0.102,0.575-0.102,3.353-0.102,3.86c0,1.186,0.135,2.812,0.203,3.522
			c0,0.169-0.068,0.237-0.203,0.271l-0.745,0.102c-0.169,0.034-0.237-0.067-0.271-0.305c-0.068-0.44-0.271-1.22-0.373-1.592
			c-0.204-0.712-0.576-1.22-1.457-1.321c-1.591-0.17-3.928-0.17-4.47-0.17v2.101c0,1.829,0.068,5.114,0.068,5.792
			c0.034,1.76,0.88,2.438,1.931,2.641c0.677,0.136,1.659,0.237,2.506,0.237c0.576,0,2.269-0.034,2.98-0.102
			c0.575-0.067,2.065-0.44,2.946-1.185c0.406-0.34,2.303-2.777,2.777-3.557c0.102-0.17,0.203-0.305,0.406-0.203l0.542,0.305
			c0.169,0.102,0.169,0.203,0.068,0.475l-1.795,4.979c-0.102,0.305-0.338,0.508-0.745,0.508c-0.169,0-0.914-0.034-2.946-0.068
			c-2.032,0-5.317-0.033-10.601-0.033c-1.253,0-2.201,0.033-2.879,0.033c-0.711,0.034-1.151,0.068-1.456,0.068
			c-0.203,0-0.305-0.068-0.305-0.237v-0.915c0-0.135,0.102-0.169,0.338-0.169h1.355c1.558,0,1.693-0.237,1.693-1.49v-8.026v-3.318
			c0-2.812-0.068-7.045-0.102-7.384c-0.136-1.083-0.474-1.321-1.728-1.321h-1.219c-0.169,0-0.271-0.033-0.271-0.236v-0.915
			c0-0.102,0.068-0.169,0.237-0.169c0.745,0,1.931,0.102,4.166,0.102h1.49c3.353,0,6.706-0.034,10.059-0.034
			c0.542,0,1.185-0.067,1.354-0.067c0.169,0,0.237,0.067,0.271,0.169c0.136,0.474,1.626,5.114,1.728,5.453
			c0.034,0.136,0.034,0.237-0.102,0.305l-0.508,0.271c-0.102,0.068-0.237-0.033-0.271-0.102c-0.067-0.135-2.574-3.353-3.387-3.861
			c-0.711-0.474-1.659-0.88-2.574-0.914l-6.028-0.135V413.222z"/>
		<path clip-path="url(#SVGID_4_)" fill="#58595B" d="M360.158,424.939c-0.407-0.305-0.61-0.406-0.779-0.406
			c-0.203,0-0.339,0.237-0.542,0.576c-0.203,0.373-0.372,0.406-0.609,0.406c-0.203,0-0.373-0.17-0.305-0.542
			c0.135-0.847,0.474-5.147,0.576-6.13c0.034-0.203,0.102-0.203,0.237-0.203l0.508,0.033c0.136,0,0.204,0.068,0.204,0.271
			c0.034,1.084,0.102,2.201,1.219,3.929c1.016,1.592,2.879,2.507,4.741,2.507c2.032,0,4.606-1.254,4.606-4.303
			c0-3.487-2.506-4.774-5.216-5.723c-1.05-0.373-3.488-1.219-4.944-2.744c-1.118-1.117-1.694-2.709-1.694-4.943
			c0-1.693,1.05-3.354,2.1-4.336c1.219-1.151,2.913-1.625,4.741-1.625c1.931,0,3.421,0.575,3.997,0.846
			c0.305,0.17,0.474,0.137,0.643-0.033l0.44-0.406c0.169-0.136,0.271-0.203,0.44-0.203c0.169,0,0.271,0.271,0.271,0.576
			c0,1.186,0.44,4.639,0.474,5.385c0,0.169-0.034,0.236-0.169,0.271l-0.407,0.102c-0.101,0.034-0.169,0-0.203-0.102
			c-0.271-0.981-0.711-2.304-2.1-3.759c-0.914-0.982-2.1-1.457-3.691-1.457c-3.014,0-4.098,2.235-4.098,3.963
			c0,0.948,0.203,2.065,1.049,2.946c0.982,0.982,2.879,1.728,3.861,2.032c2.337,0.744,4.233,1.32,5.453,2.811
			c0.88,1.051,1.49,2.371,1.49,4.606c0,3.996-2.438,7.417-6.909,7.417C363.172,426.701,361.513,425.99,360.158,424.939"/>
		<path clip-path="url(#SVGID_4_)" fill="#58595B" d="M411.366,403.434h-0.847c-1.084,0-4.03,0-5.351,0.406
			c-1.524,0.475-2.54,2.846-3.014,3.93c-0.068,0.169-0.169,0.203-0.338,0.169l-0.61-0.169c-0.102-0.034-0.204-0.068-0.135-0.271
			c0.338-1.219,1.524-5.588,1.592-5.961c0.067-0.439,0.203-0.541,0.338-0.541c0.169,0,0.271,0.033,0.407,0.135l0.44,0.305
			c0.61,0.44,0.948,0.542,1.931,0.576c1.795,0.067,3.217,0.203,6.401,0.203h1.625c3.691,0,5.148-0.136,6.807-0.203
			c0.746-0.034,1.186-0.136,1.761-0.475l0.644-0.406c0.169-0.102,0.271-0.135,0.407-0.135c0.169,0,0.237,0.102,0.305,0.541
			c0.067,0.406,0.711,4.606,0.982,6.096c0.034,0.17-0.034,0.238-0.203,0.271l-0.542,0.136c-0.135,0.034-0.169,0-0.271-0.237
			c-0.271-0.643-1.287-3.251-2.404-3.793c-1.016-0.508-4.2-0.576-5.859-0.576h-0.948v9.652c0,0.475,0,9.957,0.034,10.533
			c0.067,0.847,0.339,1.354,1.151,1.354h2.134c0.305,0,0.338,0.102,0.338,0.339v0.711c0,0.17-0.034,0.271-0.338,0.271
			c-0.339,0-1.423-0.102-4.742-0.102c-3.251,0-4.674,0.102-5.148,0.102c-0.271,0-0.305-0.136-0.305-0.339v-0.644
			c0-0.237,0.034-0.339,0.237-0.339h2.303c0.677,0,1.084-0.406,1.118-0.813c0.102-0.981,0.102-11.379,0.102-12.022V403.434z"/>
		<path clip-path="url(#SVGID_4_)" fill="#58595B" d="M455.869,416.777c-0.338,0.848-2.201,5.995-2.371,6.706
			c-0.034,0.237-0.102,0.575-0.102,0.745c0,0.475,0.406,0.745,1.151,0.745h1.592c0.237,0,0.339,0.067,0.339,0.237v0.779
			c0,0.236-0.102,0.305-0.271,0.305c-0.474,0-1.863-0.102-3.861-0.102c-2.473,0-3.218,0.102-3.692,0.102
			c-0.169,0-0.237-0.068-0.237-0.271v-0.812c0-0.17,0.135-0.237,0.271-0.237h1.185c1.016,0,1.49-0.474,1.964-1.558
			c0.237-0.542,2.709-6.808,3.692-9.584c0.237-0.678,2.98-7.959,3.285-8.874c0.102-0.339,0.271-0.778,0.034-1.151
			c-0.102-0.136-0.237-0.305-0.237-0.44c0-0.102,0.068-0.237,0.305-0.306c0.948-0.203,2.438-1.219,2.811-1.692
			c0.169-0.169,0.271-0.306,0.44-0.306c0.203,0,0.271,0.203,0.373,0.576c0.644,2.134,3.285,9.721,3.929,11.888
			c0.779,2.642,2.98,8.94,3.455,9.923c0.576,1.118,1.456,1.524,2.303,1.524h1.118c0.203,0,0.271,0.102,0.271,0.237v0.847
			c0,0.169-0.102,0.237-0.339,0.237c-0.609,0-1.321-0.102-4.064-0.102c-2.811,0-3.997,0.102-4.775,0.102
			c-0.17,0-0.271-0.102-0.271-0.305v-0.779c0-0.203,0.102-0.237,0.305-0.237h0.847c0.948,0,1.253-0.339,1.016-1.287
			c-0.271-1.22-1.66-5.554-2.134-6.909H455.869z M463.794,415.559c-0.305-1.016-3.048-9.483-3.218-9.99
			c-0.102-0.238-0.169-0.475-0.271-0.475c-0.135,0-0.271,0.236-0.373,0.508c-0.169,0.439-3.387,9.11-3.624,9.957H463.794z"/>
		<path clip-path="url(#SVGID_4_)" fill="#58595B" d="M507.992,425.99c-2.303-0.915-3.488-2.405-4.03-4.539
			c-0.406-1.523-0.542-3.793-0.542-8.229v-8.061c0-1.185-0.237-1.728-1.287-1.728h-1.592c-0.203,0-0.237-0.067-0.237-0.305v-0.744
			c0-0.204,0.034-0.271,0.305-0.271c0.338,0,1.998,0.102,4.64,0.102c2.642,0,4.267-0.102,4.64-0.102
			c0.271,0,0.305,0.067,0.305,0.203v0.881c0,0.169-0.034,0.236-0.271,0.236h-1.693c-0.982,0-1.558,0.645-1.626,1.389
			c-0.034,0.305-0.068,2.676-0.068,4.402v2.236c0,1.795,0.136,6.096,0.169,7.18c0.034,1.558,0.305,3.149,1.084,4.301
			c1.253,1.829,3.42,2.439,5.385,2.439c1.93,0,3.895-0.645,5.08-1.863c1.321-1.423,1.761-3.455,1.761-5.961v-7.248
			c0-2.573-0.068-4.538-0.169-5.385c-0.102-0.881-0.643-1.49-1.524-1.49h-1.49c-0.203,0-0.237-0.102-0.237-0.271v-0.813
			c0-0.169,0.034-0.236,0.237-0.236c0.339,0,1.896,0.102,4.166,0.102c2.337,0,3.42-0.102,3.725-0.102
			c0.305,0,0.339,0.135,0.339,0.236v0.746c0,0.203-0.034,0.338-0.204,0.338h-1.388c-1.253,0-1.355,0.949-1.457,1.355
			c-0.067,0.338-0.067,5.147-0.067,5.621c0,0.475-0.068,6.401-0.169,7.723c-0.204,2.777-0.949,4.91-2.845,6.536
			c-1.355,1.253-3.421,2.032-6.367,2.032C510.803,426.701,509.109,426.464,507.992,425.99"/>
		<path clip-path="url(#SVGID_4_)" fill="#58595B" d="M557.1,410.783c0-2.506,0-4.674-0.033-5.656
			c-0.034-1.117-0.44-1.693-1.287-1.693h-1.354c-0.17,0-0.204-0.102-0.204-0.236v-0.848c0-0.169,0.034-0.236,0.204-0.236
			c0.304,0,1.354,0.102,4.199,0.102c1.896,0,5.046-0.102,5.655-0.102c2.812,0,5.047,0.847,6.334,2.066
			c1.117,1.083,1.761,2.607,1.761,3.86c0,4.233-1.931,5.825-6.265,6.773v0.067c0.812,0.305,1.286,0.914,1.557,1.287
			c0.407,0.44,2.812,3.895,3.082,4.335c0.17,0.339,2.338,3.421,2.98,3.895c0.712,0.509,1.49,0.576,2.439,0.576
			c0.236,0,0.27,0.136,0.27,0.271v0.746c0,0.203-0.033,0.305-0.27,0.305c-0.271,0-1.152-0.102-2.643-0.102
			c-0.982,0-2.234,0.067-2.743,0.102c-0.372-0.34-1.118-1.49-1.423-1.931c-0.271-0.407-2.1-3.624-2.269-3.896
			c-0.136-0.236-1.761-2.675-2.167-3.149c-0.881-1.05-1.693-1.964-3.658-1.964c-0.305,0-0.644,0-1.117,0.102v1.896
			c0,1.998,0.033,5.791,0.067,6.299c0.067,0.712,0.339,1.321,0.847,1.321h2.133c0.238,0,0.271,0.102,0.271,0.271v0.746
			c0,0.236-0.033,0.305-0.373,0.305c-0.372,0-1.219-0.102-4.436-0.102c-3.082,0-3.861,0.102-4.233,0.102
			c-0.271,0-0.271-0.102-0.271-0.271v-0.779c0-0.169,0-0.271,0.169-0.271h1.389c0.746,0,1.321-0.237,1.321-1.151
			c0.067-3.354,0.067-6.537,0.067-9.754V410.783z M560.148,414.137c0.508,0.102,0.88,0.135,1.523,0.135
			c6.164,0,7.35-4.233,7.35-5.656c0-1.558-0.711-3.047-1.693-3.86c-1.32-1.05-2.812-1.558-5.622-1.558
			c-0.406,0-0.847,0.067-1.151,0.271c-0.237,0.169-0.406,0.542-0.406,1.084V414.137z"/>
		<path clip-path="url(#SVGID_4_)" fill="#58595B" d="M610.171,416.777c-0.339,0.848-2.201,5.995-2.37,6.706
			c-0.034,0.237-0.102,0.575-0.102,0.745c0,0.475,0.406,0.745,1.15,0.745h1.592c0.237,0,0.34,0.067,0.34,0.237v0.779
			c0,0.236-0.103,0.305-0.271,0.305c-0.475,0-1.863-0.102-3.861-0.102c-2.473,0-3.217,0.102-3.691,0.102
			c-0.169,0-0.237-0.068-0.237-0.271v-0.812c0-0.17,0.136-0.237,0.271-0.237h1.185c1.017,0,1.49-0.474,1.965-1.558
			c0.237-0.542,2.709-6.808,3.691-9.584c0.237-0.678,2.98-7.959,3.285-8.874c0.102-0.339,0.271-0.778,0.034-1.151
			c-0.102-0.136-0.237-0.305-0.237-0.44c0-0.102,0.068-0.237,0.305-0.306c0.948-0.203,2.438-1.219,2.811-1.692
			c0.17-0.169,0.271-0.306,0.441-0.306c0.203,0,0.271,0.203,0.372,0.576c0.644,2.134,3.285,9.721,3.929,11.888
			c0.779,2.642,2.98,8.94,3.455,9.923c0.575,1.118,1.455,1.524,2.303,1.524h1.117c0.203,0,0.271,0.102,0.271,0.237v0.847
			c0,0.169-0.102,0.237-0.34,0.237c-0.609,0-1.32-0.102-4.063-0.102c-2.812,0-3.996,0.102-4.775,0.102
			c-0.169,0-0.271-0.102-0.271-0.305v-0.779c0-0.203,0.102-0.237,0.305-0.237h0.847c0.948,0,1.253-0.339,1.017-1.287
			c-0.271-1.22-1.66-5.554-2.135-6.909H610.171z M618.096,415.559c-0.305-1.016-3.048-9.483-3.217-9.99
			c-0.102-0.238-0.17-0.475-0.271-0.475c-0.135,0-0.271,0.236-0.373,0.508c-0.169,0.439-3.387,9.11-3.623,9.957H618.096z"/>
		<path clip-path="url(#SVGID_4_)" fill="#58595B" d="M659.584,406.617c0-1.998-1.016-3.115-2.235-3.149l-1.389-0.034
			c-0.169,0-0.203-0.135-0.203-0.236v-0.881c0-0.136,0.034-0.203,0.203-0.203c0.17,0,0.44,0.033,0.948,0.033
			c0.509,0.034,1.254,0.068,2.404,0.068c1.152,0,1.863-0.068,2.27-0.068c0.44,0,0.711,0.136,0.982,0.441
			c0.17,0.203,6.74,8.737,7.112,9.211c0.372,0.475,6.096,7.485,6.909,8.568h0.135v-4.029c0-3.015-0.033-4.674-0.102-6.367
			c-0.033-1.32-0.203-4.641-0.406-5.216c-0.271-0.847-0.914-1.321-1.862-1.321h-1.084c-0.136,0-0.203-0.067-0.203-0.236v-0.881
			c0-0.136,0.067-0.203,0.203-0.203c0.474,0,1.558,0.102,3.726,0.102c2.032,0,2.845-0.102,3.285-0.102
			c0.237,0,0.271,0.102,0.271,0.236v0.848c0,0.135-0.067,0.236-0.203,0.236h-0.914c-0.915,0-1.253,0.576-1.321,1.863
			c-0.135,2.27-0.135,5.621-0.135,7.823v12.667c0,0.474-0.034,0.812-0.17,0.812c-0.406,0-0.711-0.406-0.812-0.542
			c-0.034-0.067-2.032-2.574-4.132-5.216c-2.371-2.946-4.843-6.062-5.046-6.266c-0.373-0.338-6.604-8.162-6.808-8.433h-0.204v7.519
			c0,3.149,0.271,8.67,0.34,9.348c0.135,1.32,0.338,1.964,1.252,1.964h1.017c0.237,0,0.271,0.102,0.271,0.306v0.744
			c0,0.203-0.033,0.271-0.271,0.271c-0.339,0-2.37-0.102-3.285-0.102c-0.711,0-3.048,0.102-3.387,0.102
			c-0.136,0-0.169-0.068-0.169-0.237v-0.881c0-0.102,0.033-0.203,0.203-0.203h1.151c0.981,0,1.354-0.406,1.524-2.065
			c0.067-0.644,0.135-4.504,0.135-10.533V406.617z"/>
		<path clip-path="url(#SVGID_4_)" fill="#58595B" d="M719.09,403.434h-0.847c-1.084,0-4.03,0-5.351,0.406
			c-1.524,0.475-2.54,2.846-3.015,3.93c-0.067,0.169-0.169,0.203-0.339,0.169l-0.609-0.169c-0.102-0.034-0.203-0.068-0.135-0.271
			c0.338-1.219,1.523-5.588,1.592-5.961c0.067-0.439,0.202-0.541,0.338-0.541c0.17,0,0.271,0.033,0.406,0.135l0.44,0.305
			c0.609,0.44,0.948,0.542,1.931,0.576c1.795,0.067,3.217,0.203,6.4,0.203h1.626c3.692,0,5.147-0.136,6.808-0.203
			c0.745-0.034,1.186-0.136,1.761-0.475l0.644-0.406c0.17-0.102,0.271-0.135,0.406-0.135c0.17,0,0.237,0.102,0.305,0.541
			c0.068,0.406,0.712,4.606,0.982,6.096c0.034,0.17-0.033,0.238-0.203,0.271l-0.542,0.136c-0.136,0.034-0.169,0-0.271-0.237
			c-0.271-0.643-1.287-3.251-2.404-3.793c-1.017-0.508-4.2-0.576-5.859-0.576h-0.948v9.652c0,0.475,0,9.957,0.034,10.533
			c0.067,0.847,0.338,1.354,1.151,1.354h2.134c0.305,0,0.338,0.102,0.338,0.339v0.711c0,0.17-0.033,0.271-0.338,0.271
			c-0.34,0-1.423-0.102-4.742-0.102c-3.251,0-4.674,0.102-5.147,0.102c-0.271,0-0.306-0.136-0.306-0.339v-0.644
			c0-0.237,0.035-0.339,0.238-0.339h2.303c0.677,0,1.084-0.406,1.117-0.813c0.102-0.981,0.102-11.379,0.102-12.022V403.434z"/>
		
			<line clip-path="url(#SVGID_4_)" fill="none" stroke="#8DC63F" stroke-width="9" stroke-miterlimit="10" x1="244.961" y1="371.238" x2="752.621" y2="371.238"/>
	</g>
</g>
</svg>
